# xmcd
#
# Track frame offsets:
#	150
#	19322
#	39325
#	59390
#	75260
#	92995
#	108170
#	124982
#	140180
#	169582
#	194410
#	219930
#	232782
#
# Disc length: 3401 seconds
#
# Revision: 1
# Processed by: cddbd v1.5.2PL0 Copyright (c) Steve Scherf et al.
# Submitted via: audiograbber 1.83.01
#
DISCID=a90d470d
DTITLE=The Wreckers - Way Back Home: Live from New York City
DYEAR=2007
DGENRE=Country
TTITLE0=The Good Kind
TTITLE1=Love Me Like That
TTITLE2=Way Back Home
TTITLE3=Damn That Radio
TTITLE4=Crazy People
TTITLE5=Cigarettes
TTITLE6=My, Oh My
TTITLE7=Different Truck, Same Loser
TTITLE8=Tennessee
TTITLE9=Lay Me Down
TTITLE10=Leave the Pieces
TTITLE11=Stand Still, Look Pretty
TTITLE12=Rain
EXTD=
EXTT0=
EXTT1=
EXTT2=
EXTT3=
EXTT4=
EXTT5=
EXTT6=
EXTT7=
EXTT8=
EXTT9=
EXTT10=
EXTT11=
EXTT12=
PLAYORDER=
